<svg xmlns="http://www.w3.org/2000/svg" version="1.1" viewBox="-5.0 -10.0 110.0 135.0">
 <path d="m81.453 13.41c-8.8672-6.2539-21.633-5.1836-31.453 2.5117-9.8125-7.6953-22.586-8.7656-31.453-2.5117-10.441 7.375-13.809 23.715-7.6719 37.195 1.5625 3.4961 3.9609 6.7852 7.3359 10.051l30.703 29.531c0.30078 0.29297 0.69141 0.4375 1.082 0.4375s0.78125-0.14453 1.082-0.4375l30.707-29.535c3.3711-3.2617 5.7695-6.5469 7.332-10.043 6.1367-13.488 2.7695-29.828-7.6719-37.203zm4.8242 35.91c0 0.003907-0.003906 0.007813-0.003906 0.007813-1.3984 3.125-3.5781 6.0977-6.6523 9.0742l-29.621 28.488-29.617-28.488c-3.0781-2.9805-5.2578-5.9492-6.6602-9.0859-5.5391-12.168-2.6289-26.82 6.625-33.355 3.3281-2.3516 7.3086-3.4961 11.461-3.4961 5.8359 0 12.004 2.2695 17.18 6.6602 0.57812 0.49609 1.4414 0.49609 2.0195 0 8.8438-7.5156 20.625-8.8242 28.641-3.168 9.2578 6.5352 12.164 21.191 6.625 33.359z"/>
</svg>